<svg width="209" height="209" viewBox="0 0 209 209" fill="none" xmlns="http://www.w3.org/2000/svg">
<g clip-path="url(#clip0)">
<path d="M190.85 200.227L178.135 58.626C177.788 54.759 174.547 51.797 170.665 51.797H144.444V39.971C144.444 17.931 126.514 0 104.475 0C82.4369 0 64.5089 17.931 64.5089 39.971V51.797H38.2699C34.3879 51.797 31.1469 54.759 30.7999 58.626L18.0349 200.784C17.8469 202.882 18.5489 204.961 19.9699 206.515C21.3909 208.069 23.3999 208.954 25.5049 208.954H183.431C183.437 208.954 183.445 208.954 183.451 208.954C187.594 208.954 190.951 205.596 190.951 201.454C190.95 201.037 190.916 200.626 190.85 200.227ZM79.5089 39.971C79.5089 26.202 90.7089 15 104.476 15C118.244 15 129.445 26.202 129.445 39.971V51.797H79.5089V39.971ZM33.7089 193.955L45.1269 66.797H64.5089V80.209C64.5089 84.351 67.8659 87.709 72.0089 87.709C76.1519 87.709 79.5089 84.351 79.5089 80.209V66.797H129.445V80.209C129.445 84.351 132.802 87.709 136.945 87.709C141.088 87.709 144.445 84.351 144.445 80.209V66.797H163.809L175.227 193.955H33.7089V193.955Z" fill="#3A9860"/>
</g>
<defs>
<clipPath id="clip0">
<rect width="208.955" height="208.955" fill="white"/>
</clipPath>
</defs>
</svg>
