<svg width="34" height="30" viewBox="0 0 34 30" fill="none" xmlns="http://www.w3.org/2000/svg">
<path fill-rule="evenodd" clip-rule="evenodd" d="M29.3636 1.86289C28.9947 0.774667 27.9618 0 26.7444 0H6.45556C5.23822 0 4.22378 0.774667 3.83644 1.86289L0 12.9111V27.6667C0 28.6811 0.83 29.5111 1.84444 29.5111H3.68889C4.70333 29.5111 5.53333 28.6811 5.53333 27.6667V25.8222H27.6667V27.6667C27.6667 28.6811 28.4967 29.5111 29.5111 29.5111H31.3556C32.37 29.5111 33.2 28.6811 33.2 27.6667V12.9111L29.3636 1.86289ZM7.09924 3.68889H26.0786L28.0706 9.42512H5.10724L7.09924 3.68889ZM3.68845 22.1332H29.5107V12.911H3.68845V22.1332ZM8.30128 14.7554C6.77329 14.7554 5.53462 15.9941 5.53462 17.5221C5.53462 19.0501 6.77329 20.2888 8.30128 20.2888C9.82927 20.2888 11.0679 19.0501 11.0679 17.5221C11.0679 15.9941 9.82927 14.7554 8.30128 14.7554ZM22.1349 17.5221C22.1349 15.9941 23.3736 14.7554 24.9016 14.7554C26.4296 14.7554 27.6682 15.9941 27.6682 17.5221C27.6682 19.0501 26.4296 20.2888 24.9016 20.2888C23.3736 20.2888 22.1349 19.0501 22.1349 17.5221Z" fill="#002D56"/>
</svg>
