<svg width="33" height="51" viewBox="0 0 33 51" fill="none" xmlns="http://www.w3.org/2000/svg">
<path d="M27.4168 33.3495C26.5585 32.3301 23.7687 32.7593 21.4081 33.4031C21.3545 33.1885 21.3008 32.9203 21.1935 32.7057C22.5347 32.0083 24.0906 31.3108 25.5391 31.0426C28.4898 30.5061 26.7194 28.4674 25.1636 27.8772C23.9296 27.3944 21.73 29.1648 19.9596 30.9353C19.7986 30.7743 19.584 30.6134 19.4231 30.5061C20.2815 29.2185 21.2472 27.8236 22.3738 26.8579C24.6807 24.9265 22.1055 24.0145 20.4424 24.2827C19.1012 24.4973 18.0818 27.1261 17.4917 29.5404C17.2771 29.4867 17.0088 29.4331 16.7942 29.4331C16.9015 27.9309 17.0625 26.2141 17.5453 24.8192C18.5647 21.9758 15.8822 22.5123 14.5946 23.5853C13.5753 24.4437 14.0045 27.2334 14.6483 29.6477C14.4337 29.7013 14.1654 29.755 13.9508 29.8623C13.2534 28.521 12.5559 26.9652 12.2877 25.5167C11.7512 22.5659 9.7125 24.3364 9.12236 25.8922C8.63951 27.1261 10.4099 29.3258 12.1804 31.0962C12.0194 31.2572 11.8585 31.4718 11.7512 31.6327C10.4636 30.7743 9.0687 29.8086 8.10301 28.682C6.17163 26.3751 5.25959 28.9502 5.52784 30.6134C5.74243 31.9546 8.37126 32.9203 10.7855 33.5641C10.7318 33.7787 10.6782 33.9933 10.6782 34.2615C9.17601 34.1542 7.45922 33.9933 6.06433 33.5104C3.2209 32.4911 3.7574 35.1736 4.83039 36.4612C5.68878 37.4805 8.47856 37.0513 10.8928 36.4075C10.9464 36.6221 11.0001 36.8904 11.1074 37.105C9.76615 37.8024 8.21031 38.4998 6.76177 38.7681C3.81105 39.3046 5.58148 41.3433 7.13732 41.9334C8.37126 42.4163 10.5709 40.6458 12.3413 38.8754C12.5023 39.0363 12.7169 39.1973 12.8778 39.3046C12.0731 40.5922 11.0537 41.9871 9.9271 42.9528C7.62017 44.8841 10.1953 45.7962 11.8585 45.5279C13.1997 45.3133 14.1654 42.6845 14.8092 40.2703C15.0238 40.3239 15.2384 40.3776 15.5067 40.3776C15.3994 41.8798 15.2384 43.5966 14.7556 44.9914C13.7362 47.8349 16.4187 47.352 17.7063 46.2254C18.7256 45.367 18.2964 42.5772 17.6526 40.2166C17.8672 40.163 18.1355 40.1093 18.3501 40.002C19.0475 41.3433 19.745 42.8991 20.0132 44.3476C20.5497 47.2984 22.5884 45.5279 23.2322 43.9721C23.715 42.7382 21.9446 40.5385 20.1742 38.7681C20.3351 38.6071 20.4961 38.3925 20.6034 38.2316C21.8909 39.0363 23.2858 40.0557 24.2515 41.1823C26.1829 43.4893 27.095 40.9141 26.8267 39.2509C26.6121 37.9097 23.9833 36.944 21.569 36.3002C21.6227 36.0856 21.6763 35.871 21.6763 35.6028C23.1785 35.6564 24.8953 35.871 26.2902 36.3539C28.9727 37.3196 28.4898 34.6907 27.4168 33.3495ZM16.0968 39.0363C13.7899 39.0363 11.9121 37.1586 11.9121 34.8517C11.9121 32.5447 13.7899 30.667 16.0968 30.667C18.4037 30.667 20.2815 32.5447 20.2815 34.8517C20.2815 37.1586 18.4037 39.0363 16.0968 39.0363Z" fill="black"/>
<path d="M16.0925 37.6416C17.6333 37.6416 18.8823 36.3925 18.8823 34.8518C18.8823 33.311 17.6333 32.062 16.0925 32.062C14.5518 32.062 13.3027 33.311 13.3027 34.8518C13.3027 36.3925 14.5518 37.6416 16.0925 37.6416Z" fill="black"/>
<path d="M16.0949 18.8103C7.24269 18.8103 0 25.9993 0 34.9052C0 43.811 7.18904 51 16.0949 51C24.947 51 32.1897 43.811 32.1897 34.9052C32.1897 25.9993 24.947 18.8103 16.0949 18.8103ZM16.0949 48.6931C8.47663 48.6931 2.25328 42.4697 2.25328 34.8515C2.25328 27.2333 8.47663 21.0636 16.0949 21.0636C23.7131 21.0636 29.9364 27.2869 29.9364 34.9052C29.9364 42.5234 23.7131 48.6931 16.0949 48.6931Z" fill="black"/>
<path d="M9.01513 3.73523L9.71257 3.57428L10.0345 4.86187C10.3564 6.20311 10.2491 7.75894 9.71257 8.83193C8.80053 10.656 8.69323 13.1239 9.44432 15.1089L9.87352 16.2892C10.0345 16.7184 10.4637 17.0403 10.9465 17.0403C11.0538 17.0403 11.2148 17.0403 11.3221 16.9867C11.9122 16.7721 12.1805 16.1283 11.9659 15.5381L11.5367 14.3578C11.0002 12.9629 11.0538 11.1389 11.6976 9.85128C12.4487 8.29544 12.6633 6.14946 12.1805 4.32537L11.8586 3.14508L12.4487 3.03779C12.8779 2.93049 12.9852 2.44764 12.6633 2.17939L10.41 0.19436C10.1954 -0.127537 9.81987 -0.0202379 9.65892 0.301659L8.42498 3.03779C8.26403 3.41333 8.58593 3.84253 9.01513 3.73523Z" fill="black"/>
<path d="M14.483 3.7353L15.1804 3.57435L15.5023 4.86194C15.8242 6.20318 15.7169 7.75902 15.1804 8.83201C14.2684 10.6561 14.1611 13.124 14.9121 15.109L15.3413 16.2893C15.5023 16.7185 15.9315 17.0404 16.4143 17.0404C16.5216 17.0404 16.6826 17.0404 16.7899 16.9867C17.38 16.7721 17.6483 16.1283 17.4337 15.5382L17.0045 14.3579C16.468 12.963 16.5216 11.1389 17.1654 9.85135C17.9165 8.29552 18.1311 6.14953 17.6483 4.32545L17.3264 3.14516L17.9165 3.03786C18.3457 2.93056 18.453 2.44771 18.1311 2.17947L15.8778 0.194433C15.6096 -0.0201654 15.234 0.0334841 15.0731 0.355381L13.8392 3.09151C13.7319 3.41341 14.0538 3.8426 14.483 3.7353Z" fill="black"/>
<path d="M19.9055 3.7353L20.603 3.57435L20.9249 4.86194C21.2468 6.20318 21.1395 7.75902 20.603 8.83201C19.6909 10.6561 19.5836 13.124 20.3347 15.109L20.7639 16.2893C20.9249 16.7185 21.3541 17.0404 21.8369 17.0404C21.9442 17.0404 22.1052 17.0404 22.2125 16.9867C22.8026 16.7721 23.0708 16.1283 22.8562 15.5382L22.4271 14.3579C21.8906 12.963 21.9442 11.1389 22.588 9.85135C23.3391 8.29552 23.5537 6.14953 23.0708 4.32545L22.749 3.14516L23.3391 3.03786C23.7683 2.93056 23.8756 2.44771 23.5537 2.17947L21.3004 0.194433C21.0322 -0.0201654 20.6566 0.0334841 20.4957 0.355381L19.2617 3.09151C19.2081 3.41341 19.53 3.8426 19.9055 3.7353Z" fill="black"/>
</svg>
