<svg width="49" height="43" viewBox="0 0 49 43" fill="none" xmlns="http://www.w3.org/2000/svg">
<path d="M47.4944 32.0202L30.4885 3.52375C29.1607 1.32779 26.8115 0 24.2581 0C21.7046 0 19.3555 1.32779 18.0277 3.52375L1.02175 32.0202C-0.306045 34.2672 -0.357114 37.0249 0.970677 39.323C2.29847 41.6211 4.64764 43 7.25215 43H41.264C43.9196 43 46.2688 41.6211 47.5455 39.323C48.8733 37.0249 48.8222 34.2672 47.4944 32.0202ZM43.6132 37.076C43.3578 37.4846 42.694 38.4549 41.264 38.4549H7.25215C5.82222 38.4549 5.10726 37.4846 4.90298 37.076C4.64764 36.6675 4.18802 35.5439 4.95405 34.3183L21.96 5.82185C22.4707 4.95368 23.3388 4.49406 24.3092 4.49406C25.2795 4.49406 26.1476 4.95368 26.6583 5.82185L43.6643 34.3183C44.3282 35.595 43.8685 36.6675 43.6132 37.076Z" fill="black"/>
<path d="M28.8541 21.1425L26.5049 21.5C26.2496 21.5511 25.9942 21.3468 25.9942 21.0404V15.8825C25.9942 14.5547 24.2068 14.095 23.594 15.2696L18.3339 25.1259C17.8232 26.0452 18.5892 27.1687 19.6617 27.0155L22.0109 26.658C22.2662 26.6069 22.5215 26.8112 22.5215 27.1176V32.2756C22.5215 33.6034 24.309 34.063 24.9218 32.8884L30.1819 23.0321C30.6415 22.1129 29.8755 20.9893 28.8541 21.1425Z" fill="black"/>
</svg>
