<svg width="32" height="22" viewBox="0 0 32 22" fill="none" xmlns="http://www.w3.org/2000/svg">
<path d="M30.0831 6.73734H25.8437L25.0867 8.51635H24.746V7.87288C24.746 7.45651 24.4054 7.11585 23.989 7.11585H22.0965V5.71535C22.0965 4.65552 21.2637 3.82279 20.2039 3.82279H16.7216V2.46014H20.2039C20.5445 2.46014 20.8095 2.19518 20.8095 1.85452V1.36246C20.8095 1.02179 20.5445 0.756836 20.2039 0.756836H8.28073C7.94007 0.756836 7.67511 1.02179 7.67511 1.36246V1.85452C7.67511 2.19518 7.94007 2.46014 8.28073 2.46014H12.1794V3.82279H8.31858C8.05362 3.82279 7.75081 3.89849 7.5237 4.0499L5.44188 5.48825H3.54932V10.8253H2.33807V6.39668C2.33807 6.05602 2.07311 5.79106 1.73245 5.79106H1.24039C0.899724 5.79106 0.634766 6.05602 0.634766 6.39668V16.995C0.634766 17.3357 0.899724 17.6007 1.24039 17.6007H1.73245C2.07311 17.6007 2.33807 17.3357 2.33807 16.995V12.5664H3.54932V17.8278H5.93395L11.2331 21.8022H22.7021C23.8376 21.8022 24.746 20.8937 24.746 19.7582V18.8119H25.0867L25.8437 20.5909H30.0831L31.4457 17.525V9.84115L30.0831 6.73734ZM15.4346 15.7838V11.5823H12.3687L15.6996 5.90461V10.144H18.7655L15.4346 15.7838Z" fill="black"/>
</svg>
