<svg width="137" height="136" viewBox="0 0 137 136" fill="none" xmlns="http://www.w3.org/2000/svg">
<path d="M2.71004 0.112284C1.72172 0.457781 0.827521 1.50415 0.620444 2.56038C0.215701 4.59388 2.1547 6.62738 4.0937 6.20291C5.55266 5.88703 6.68217 4.32735 6.54098 2.85652C6.43744 1.82003 5.69384 0.753922 4.75258 0.270226C4.17841 -0.0160437 3.29363 -0.0851431 2.71004 0.112284Z" fill="#F8971D"/>
<path d="M21.2276 0.112284C20.2393 0.457781 19.3451 1.50415 19.138 2.56038C18.7333 4.59388 20.6723 6.62738 22.6113 6.20291C24.0702 5.88703 25.1997 4.32735 25.0586 2.85652C24.955 1.82003 24.2114 0.753922 23.2702 0.270226C22.696 -0.0160437 21.8112 -0.0851431 21.2276 0.112284Z" fill="#F8971D"/>
<path d="M39.7491 0.112284C38.7608 0.457781 37.8666 1.50415 37.6595 2.56038C37.2548 4.59388 39.1937 6.62738 41.1327 6.20291C42.5917 5.88703 43.7212 4.32735 43.58 2.85652C43.4765 1.82003 42.7329 0.753922 41.7916 0.270226C41.2174 -0.0160437 40.3327 -0.0851431 39.7491 0.112284Z" fill="#F8971D"/>
<path d="M58.2667 0.112284C57.2784 0.457781 56.3842 1.50415 56.1771 2.56038C55.7723 4.59388 57.7113 6.62738 59.6503 6.20291C61.1093 5.88703 62.2388 4.32735 62.0976 2.85652C61.9941 1.82003 61.2505 0.753922 60.3092 0.270226C59.7351 -0.0160437 58.8503 -0.0851431 58.2667 0.112284Z" fill="#F8971D"/>
<path d="M76.7882 0.112284C75.7998 0.457781 74.9056 1.50415 74.6986 2.56038C74.2938 4.59388 76.2328 6.62738 78.1718 6.20291C79.6308 5.88703 80.7603 4.32735 80.6191 2.85652C80.5156 1.82003 79.772 0.753922 78.8307 0.270226C78.2565 -0.0160437 77.3718 -0.0851431 76.7882 0.112284Z" fill="#F8971D"/>
<path d="M95.3077 0.112284C94.3194 0.457781 93.4252 1.50415 93.2181 2.56038C92.8134 4.59388 94.7524 6.62738 96.6914 6.20291C98.1503 5.88703 99.2798 4.32735 99.1386 2.85652C99.0351 1.82003 98.2915 0.753922 97.3502 0.270226C96.7761 -0.0160437 95.8913 -0.0851431 95.3077 0.112284Z" fill="#F8971D"/>
<path d="M113.827 0.112284C112.839 0.457781 111.945 1.50415 111.738 2.56038C111.333 4.59388 113.272 6.62738 115.211 6.20291C116.67 5.88703 117.799 4.32735 117.658 2.85652C117.555 1.82003 116.811 0.753922 115.87 0.270226C115.296 -0.0160437 114.411 -0.0851431 113.827 0.112284Z" fill="#F8971D"/>
<path d="M132.345 0.112284C131.356 0.457781 130.462 1.50415 130.255 2.56038C129.85 4.59388 131.789 6.62738 133.728 6.20291C135.187 5.88703 136.317 4.32735 136.176 2.85652C136.072 1.82003 135.329 0.753922 134.387 0.270226C133.813 -0.0160437 132.928 -0.0851431 132.345 0.112284Z" fill="#F8971D"/>
<path d="M2.71004 21.6917C1.72172 22.0372 0.827521 23.0835 0.620444 24.1398C0.215701 26.1733 2.1547 28.2068 4.0937 27.7823C5.55266 27.4664 6.68217 25.9067 6.54098 24.4359C6.43744 23.3994 5.69384 22.3333 4.75258 21.8496C4.17841 21.5633 3.29363 21.4942 2.71004 21.6917Z" fill="#F8971D"/>
<path d="M21.2276 21.6917C20.2393 22.0372 19.3451 23.0835 19.138 24.1398C18.7333 26.1733 20.6723 28.2068 22.6113 27.7823C24.0702 27.4664 25.1997 25.9067 25.0586 24.4359C24.955 23.3994 24.2114 22.3333 23.2702 21.8496C22.696 21.5633 21.8112 21.4942 21.2276 21.6917Z" fill="#F8971D"/>
<path d="M39.7491 21.6917C38.7608 22.0372 37.8666 23.0835 37.6595 24.1398C37.2548 26.1733 39.1937 28.2068 41.1327 27.7823C42.5917 27.4664 43.7212 25.9067 43.58 24.4359C43.4765 23.3994 42.7329 22.3333 41.7916 21.8496C41.2174 21.5633 40.3327 21.4942 39.7491 21.6917Z" fill="#F8971D"/>
<path d="M58.2667 21.6917C57.2784 22.0372 56.3842 23.0835 56.1771 24.1398C55.7723 26.1733 57.7113 28.2068 59.6503 27.7823C61.1093 27.4664 62.2388 25.9067 62.0976 24.4359C61.9941 23.3994 61.2505 22.3333 60.3092 21.8496C59.7351 21.5633 58.8503 21.4942 58.2667 21.6917Z" fill="#F8971D"/>
<path d="M76.7882 21.6917C75.7998 22.0372 74.9056 23.0835 74.6986 24.1398C74.2938 26.1733 76.2328 28.2068 78.1718 27.7823C79.6308 27.4664 80.7603 25.9067 80.6191 24.4359C80.5156 23.3994 79.772 22.3333 78.8307 21.8496C78.2565 21.5633 77.3718 21.4942 76.7882 21.6917Z" fill="#F8971D"/>
<path d="M95.3077 21.6917C94.3194 22.0372 93.4252 23.0835 93.2181 24.1398C92.8134 26.1733 94.7524 28.2068 96.6914 27.7823C98.1503 27.4664 99.2798 25.9067 99.1386 24.4359C99.0351 23.3994 98.2915 22.3333 97.3502 21.8496C96.7761 21.5633 95.8913 21.4942 95.3077 21.6917Z" fill="#F8971D"/>
<path d="M113.827 21.6917C112.839 22.0372 111.945 23.0835 111.738 24.1398C111.333 26.1733 113.272 28.2068 115.211 27.7823C116.67 27.4664 117.799 25.9067 117.658 24.4359C117.555 23.3994 116.811 22.3333 115.87 21.8496C115.296 21.5633 114.411 21.4942 113.827 21.6917Z" fill="#F8971D"/>
<path d="M132.345 21.6917C131.356 22.0372 130.462 23.0835 130.255 24.1398C129.85 26.1733 131.789 28.2068 133.728 27.7823C135.187 27.4664 136.317 25.9067 136.176 24.4359C136.072 23.3994 135.329 22.3333 134.387 21.8496C133.813 21.5633 132.928 21.4942 132.345 21.6917Z" fill="#F8971D"/>
<path d="M2.71004 43.2715C1.72172 43.617 0.827521 44.6633 0.620444 45.7195C0.215701 47.753 2.1547 49.7865 4.0937 49.362C5.55266 49.0462 6.68217 47.4865 6.54098 46.0157C6.43744 44.9792 5.69384 43.9131 4.75258 43.4294C4.17841 43.1431 3.29363 43.074 2.71004 43.2715Z" fill="#F8971D"/>
<path d="M21.2276 43.2715C20.2393 43.617 19.3451 44.6633 19.138 45.7195C18.7333 47.753 20.6723 49.7865 22.6113 49.362C24.0702 49.0462 25.1997 47.4865 25.0586 46.0157C24.955 44.9792 24.2114 43.9131 23.2702 43.4294C22.696 43.1431 21.8112 43.074 21.2276 43.2715Z" fill="#F8971D"/>
<path d="M39.7491 43.2715C38.7608 43.617 37.8666 44.6633 37.6595 45.7195C37.2548 47.753 39.1937 49.7865 41.1327 49.362C42.5917 49.0462 43.7212 47.4865 43.58 46.0157C43.4765 44.9792 42.7329 43.9131 41.7916 43.4294C41.2174 43.1431 40.3327 43.074 39.7491 43.2715Z" fill="#F8971D"/>
<path d="M58.2667 43.2715C57.2784 43.617 56.3842 44.6633 56.1771 45.7195C55.7723 47.753 57.7113 49.7865 59.6503 49.362C61.1093 49.0462 62.2388 47.4865 62.0976 46.0157C61.9941 44.9792 61.2505 43.9131 60.3092 43.4294C59.7351 43.1431 58.8503 43.074 58.2667 43.2715Z" fill="#F8971D"/>
<path d="M76.7882 43.2715C75.7998 43.617 74.9056 44.6633 74.6986 45.7195C74.2938 47.753 76.2328 49.7865 78.1718 49.362C79.6308 49.0462 80.7603 47.4865 80.6191 46.0157C80.5156 44.9792 79.772 43.9131 78.8307 43.4294C78.2565 43.1431 77.3718 43.074 76.7882 43.2715Z" fill="#F8971D"/>
<path d="M95.3077 43.2715C94.3194 43.617 93.4252 44.6633 93.2181 45.7195C92.8134 47.753 94.7524 49.7865 96.6914 49.362C98.1503 49.0462 99.2798 47.4865 99.1386 46.0157C99.0351 44.9792 98.2915 43.9131 97.3502 43.4294C96.7761 43.1431 95.8913 43.074 95.3077 43.2715Z" fill="#F8971D"/>
<path d="M113.827 43.2715C112.839 43.617 111.945 44.6633 111.738 45.7195C111.333 47.753 113.272 49.7865 115.211 49.362C116.67 49.0462 117.799 47.4865 117.658 46.0157C117.555 44.9792 116.811 43.9131 115.87 43.4294C115.296 43.1431 114.411 43.074 113.827 43.2715Z" fill="#F8971D"/>
<path d="M132.345 43.2715C131.356 43.617 130.462 44.6633 130.255 45.7195C129.85 47.753 131.789 49.7865 133.728 49.362C135.187 49.0462 136.317 47.4865 136.176 46.0157C136.072 44.9792 135.329 43.9131 134.387 43.4294C133.813 43.1431 132.928 43.074 132.345 43.2715Z" fill="#F8971D"/>
<path d="M2.71455 64.9C1.72451 65.2442 0.828754 66.2867 0.621317 67.3391C0.385592 68.4898 0.923044 69.7388 1.96023 70.4765C2.96913 71.2043 4.11947 71.2141 5.1378 70.506C6.80673 69.3454 7.03302 67.1817 5.63753 65.7359C4.83607 64.8901 3.68574 64.5656 2.71455 64.9Z" fill="#F8971D"/>
<path d="M21.2224 64.9C20.2323 65.2442 19.3366 66.2867 19.1291 67.3391C18.8934 68.4898 19.4309 69.7388 20.468 70.4765C21.4769 71.2043 22.6273 71.2141 23.6456 70.506C25.3145 69.3454 25.5408 67.1817 24.1453 65.7359C23.3439 64.8901 22.1935 64.5656 21.2224 64.9Z" fill="#F8971D"/>
<path d="M39.7164 64.8763C38.2949 65.3698 37.3347 67.0082 37.6266 68.4493C37.8619 69.6238 38.9068 70.7194 40.027 70.9662C41.8439 71.3709 43.736 69.5646 43.5477 67.6202C43.4442 66.5838 42.7005 65.5178 41.7591 65.0342C41.1849 64.748 40.3 64.6789 39.7164 64.8763Z" fill="#F8971D"/>
<path d="M58.2359 64.8763C56.8145 65.3698 55.8543 67.0082 56.1461 68.4493C56.3814 69.6238 57.4263 70.7194 58.5465 70.9662C60.3634 71.3709 62.2555 69.5646 62.0672 67.6202C61.9637 66.5838 61.22 65.5178 60.2786 65.0342C59.7044 64.748 58.8195 64.6789 58.2359 64.8763Z" fill="#F8971D"/>
<path d="M76.7535 64.8763C75.332 65.3698 74.3718 67.0082 74.6637 68.4493C74.899 69.6238 75.9439 70.7194 77.0641 70.9662C78.881 71.3709 80.7731 69.5646 80.5848 67.6202C80.4813 66.5838 79.7376 65.5178 78.7963 65.0342C78.222 64.748 77.3371 64.6789 76.7535 64.8763Z" fill="#F8971D"/>
<path d="M95.273 64.8763C93.8516 65.3698 92.8914 67.0082 93.1832 68.4493C93.4185 69.6238 94.4635 70.7194 95.5837 70.9662C97.4005 71.3709 99.2927 69.5646 99.1044 67.6202C99.0008 66.5838 98.2572 65.5178 97.3158 65.0342C96.7416 64.748 95.8567 64.6789 95.273 64.8763Z" fill="#F8971D"/>
<path d="M113.79 64.8753C112.802 65.2208 111.908 66.2672 111.701 67.3234C111.296 69.3569 113.235 71.3904 115.174 70.9659C116.633 70.6501 117.762 69.0904 117.621 67.6196C117.518 66.5831 116.774 65.517 115.833 65.0333C115.258 64.747 114.374 64.6779 113.79 64.8753Z" fill="#F8971D"/>
<path d="M132.312 64.8753C131.323 65.2208 130.429 66.2672 130.222 67.3234C129.817 69.3569 131.756 71.3904 133.695 70.9659C135.154 70.6501 136.284 69.0904 136.143 67.6196C136.039 66.5831 135.295 65.517 134.354 65.0333C133.78 64.747 132.895 64.6779 132.312 64.8753Z" fill="#F8971D"/>
<path d="M2.71455 86.5111C1.72451 86.8554 0.828754 87.8979 0.621317 88.9503C0.385592 90.1011 0.923044 91.3502 1.96023 92.0879C2.96913 92.8157 4.11947 92.8255 5.1378 92.1174C6.80673 90.9568 7.03302 88.793 5.63753 87.3472C4.83607 86.5013 3.68574 86.1767 2.71455 86.5111Z" fill="#F8971D"/>
<path d="M21.2224 86.5111C20.2323 86.8554 19.3366 87.8979 19.1291 88.9503C18.8934 90.1011 19.4309 91.3502 20.468 92.0879C21.4769 92.8157 22.6273 92.8255 23.6456 92.1174C25.3145 90.9568 25.5408 88.793 24.1453 87.3472C23.3439 86.5013 22.1935 86.1767 21.2224 86.5111Z" fill="#F8971D"/>
<path d="M39.7164 86.4877C38.2949 86.9812 37.3347 88.6197 37.6266 90.0608C37.8619 91.2353 38.9068 92.3309 40.027 92.5777C41.8439 92.9824 43.736 91.1761 43.5477 89.2317C43.4442 88.1953 42.7005 87.1293 41.7591 86.6456C41.1849 86.3594 40.3 86.2903 39.7164 86.4877Z" fill="#F8971D"/>
<path d="M58.2359 86.4877C56.8145 86.9812 55.8543 88.6197 56.1461 90.0608C56.3814 91.2353 57.4263 92.3309 58.5465 92.5777C60.3634 92.9824 62.2555 91.1761 62.0672 89.2317C61.9637 88.1953 61.22 87.1293 60.2786 86.6456C59.7044 86.3594 58.8195 86.2903 58.2359 86.4877Z" fill="#F8971D"/>
<path d="M76.7535 86.4877C75.332 86.9812 74.3718 88.6197 74.6637 90.0608C74.899 91.2353 75.9439 92.3309 77.0641 92.5777C78.881 92.9824 80.7731 91.1761 80.5848 89.2317C80.4813 88.1953 79.7376 87.1293 78.7963 86.6456C78.222 86.3594 77.3371 86.2903 76.7535 86.4877Z" fill="#F8971D"/>
<path d="M95.273 86.4877C93.8516 86.9812 92.8914 88.6197 93.1832 90.0608C93.4185 91.2353 94.4635 92.3309 95.5837 92.5777C97.4005 92.9824 99.2927 91.1761 99.1044 89.2317C99.0008 88.1953 98.2572 87.1293 97.3158 86.6456C96.7416 86.3594 95.8567 86.2903 95.273 86.4877Z" fill="#F8971D"/>
<path d="M113.79 86.4868C112.802 86.8323 111.908 87.8786 111.701 88.9348C111.296 90.9682 113.235 93.0017 115.174 92.5772C116.633 92.2614 117.762 90.7017 117.621 89.2309C117.518 88.1945 116.774 87.1284 115.833 86.6447C115.258 86.3585 114.374 86.2894 113.79 86.4868Z" fill="#F8971D"/>
<path d="M132.312 86.4868C131.323 86.8323 130.429 87.8786 130.222 88.9348C129.817 90.9682 131.756 93.0017 133.695 92.5772C135.154 92.2614 136.284 90.7017 136.143 89.2309C136.039 88.1945 135.295 87.1284 134.354 86.6447C133.78 86.3585 132.895 86.2894 132.312 86.4868Z" fill="#F8971D"/>
<path d="M2.71455 108.122C1.72451 108.467 0.828754 109.509 0.621317 110.562C0.385592 111.712 0.923044 112.961 1.96023 113.699C2.96913 114.427 4.11947 114.437 5.1378 113.729C6.80673 112.568 7.03302 110.404 5.63753 108.958C4.83607 108.113 3.68574 107.788 2.71455 108.122Z" fill="#F8971D"/>
<path d="M21.2224 108.122C20.2323 108.467 19.3366 109.509 19.1291 110.562C18.8934 111.712 19.4309 112.961 20.468 113.699C21.4769 114.427 22.6273 114.437 23.6456 113.729C25.3145 112.568 25.5408 110.404 24.1453 108.958C23.3439 108.113 22.1935 107.788 21.2224 108.122Z" fill="#F8971D"/>
<path d="M39.7179 108.098C38.7295 108.444 37.8353 109.49 37.6283 110.546C37.2235 112.58 39.1625 114.613 41.1015 114.189C42.5605 113.873 43.69 112.313 43.5488 110.842C43.4453 109.806 42.7017 108.74 41.7604 108.256C41.1862 107.97 40.3014 107.901 39.7179 108.098Z" fill="#F8971D"/>
<path d="M58.2413 108.098C57.253 108.444 56.3588 109.49 56.1517 110.546C55.747 112.58 57.6859 114.613 59.6249 114.189C61.0839 113.873 62.2134 112.313 62.0722 110.842C61.9686 109.806 61.225 108.74 60.2838 108.256C59.7096 107.97 58.8249 107.901 58.2413 108.098Z" fill="#F8971D"/>
<path d="M76.755 108.098C75.7666 108.444 74.8724 109.49 74.6654 110.546C74.2606 112.58 76.1996 114.613 78.1386 114.189C79.5976 113.873 80.7271 112.313 80.5859 110.842C80.4824 109.806 79.7388 108.74 78.7975 108.256C78.2233 107.97 77.3385 107.901 76.755 108.098Z" fill="#F8971D"/>
<path d="M95.2784 108.098C94.2901 108.444 93.3959 109.49 93.1888 110.546C92.7841 112.58 94.7231 114.613 96.6621 114.189C98.121 113.873 99.2505 112.313 99.1093 110.842C99.0058 109.806 98.2622 108.74 97.3209 108.256C96.7468 107.97 95.862 107.901 95.2784 108.098Z" fill="#F8971D"/>
<path d="M113.796 108.098C112.808 108.444 111.913 109.49 111.706 110.546C111.302 112.58 113.241 114.613 115.18 114.189C116.639 113.873 117.768 112.313 117.627 110.842C117.523 109.806 116.78 108.74 115.838 108.256C115.264 107.97 114.38 107.901 113.796 108.098Z" fill="#F8971D"/>
<path d="M132.316 108.098C131.327 108.444 130.433 109.49 130.226 110.546C129.821 112.58 131.76 114.613 133.699 114.189C135.158 113.873 136.288 112.313 136.146 110.842C136.043 109.806 135.299 108.74 134.358 108.256C133.784 107.97 132.899 107.901 132.316 108.098Z" fill="#F8971D"/>
<path d="M2.71004 129.685C1.72172 130.03 0.827521 131.077 0.620444 132.133C0.215701 134.166 2.1547 136.2 4.0937 135.775C5.55266 135.459 6.68217 133.9 6.54098 132.429C6.43744 131.392 5.69384 130.326 4.75258 129.843C4.17841 129.556 3.29363 129.487 2.71004 129.685Z" fill="#F8971D"/>
<path d="M21.2276 129.685C20.2393 130.03 19.3451 131.077 19.138 132.133C18.7333 134.166 20.6723 136.2 22.6113 135.775C24.0702 135.459 25.1997 133.9 25.0586 132.429C24.955 131.392 24.2114 130.326 23.2702 129.843C22.696 129.556 21.8112 129.487 21.2276 129.685Z" fill="#F8971D"/>
<path d="M39.7491 129.685C38.7608 130.03 37.8666 131.077 37.6595 132.133C37.2548 134.166 39.1937 136.2 41.1327 135.775C42.5917 135.459 43.7212 133.9 43.58 132.429C43.4765 131.392 42.7329 130.326 41.7916 129.843C41.2174 129.556 40.3327 129.487 39.7491 129.685Z" fill="#F8971D"/>
<path d="M58.2667 129.685C57.2784 130.03 56.3842 131.077 56.1771 132.133C55.7723 134.166 57.7113 136.2 59.6503 135.775C61.1093 135.459 62.2388 133.9 62.0976 132.429C61.9941 131.392 61.2505 130.326 60.3092 129.843C59.7351 129.556 58.8503 129.487 58.2667 129.685Z" fill="#F8971D"/>
<path d="M76.7882 129.685C75.7998 130.03 74.9056 131.077 74.6986 132.133C74.2938 134.166 76.2328 136.2 78.1718 135.775C79.6308 135.459 80.7603 133.9 80.6191 132.429C80.5156 131.392 79.772 130.326 78.8307 129.843C78.2565 129.556 77.3718 129.487 76.7882 129.685Z" fill="#F8971D"/>
<path d="M95.3077 129.685C94.3194 130.03 93.4252 131.077 93.2181 132.133C92.8134 134.166 94.7524 136.2 96.6914 135.775C98.1503 135.459 99.2798 133.9 99.1386 132.429C99.0351 131.392 98.2915 130.326 97.3502 129.843C96.7761 129.556 95.8913 129.487 95.3077 129.685Z" fill="#F8971D"/>
<path d="M113.827 129.685C112.839 130.03 111.945 131.077 111.738 132.133C111.333 134.166 113.272 136.2 115.211 135.775C116.67 135.459 117.799 133.9 117.658 132.429C117.555 131.392 116.811 130.326 115.87 129.843C115.296 129.556 114.411 129.487 113.827 129.685Z" fill="#F8971D"/>
<path d="M132.345 129.685C131.356 130.03 130.462 131.077 130.255 132.133C129.85 134.166 131.789 136.2 133.728 135.775C135.187 135.459 136.317 133.9 136.176 132.429C136.072 131.392 135.329 130.326 134.387 129.843C133.813 129.556 132.928 129.487 132.345 129.685Z" fill="#F8971D"/>
</svg>
