<svg width="10" height="10" viewBox="0 0 10 10" fill="none" xmlns="http://www.w3.org/2000/svg">
<path fill-rule="evenodd" clip-rule="evenodd" d="M0.660156 5.30696C0.660156 2.84739 2.65403 0.853516 5.11361 0.853516C7.57318 0.853516 9.56705 2.84739 9.56705 5.30696C9.56705 7.76654 7.57318 9.76041 5.11361 9.76041C2.65403 9.76041 0.660156 7.76654 0.660156 5.30696ZM5.11383 2.93179C4.46876 2.93179 4.38781 2.93461 4.13445 2.94614C3.88159 2.95772 3.709 2.99775 3.55797 3.05649C3.40176 3.11716 3.26924 3.19831 3.13722 3.33038C3.0051 3.4624 2.92395 3.59492 2.86308 3.75109C2.8042 3.90216 2.76411 4.07481 2.75273 4.32757C2.7414 4.58092 2.73843 4.66192 2.73843 5.30699C2.73843 5.95205 2.7413 6.03276 2.75278 6.28611C2.76441 6.53897 2.80444 6.71157 2.86313 6.86259C2.92385 7.01881 3.005 7.15133 3.13707 7.28335C3.26904 7.41547 3.40156 7.49682 3.55768 7.55749C3.7088 7.61622 3.88145 7.65626 4.13426 7.66784C4.38761 7.67937 4.46852 7.68219 5.11353 7.68219C5.75864 7.68219 5.83935 7.67937 6.09271 7.66784C6.34557 7.65626 6.51836 7.61622 6.66948 7.55749C6.82565 7.49682 6.95797 7.41547 7.08994 7.28335C7.22206 7.15133 7.30322 7.01881 7.36408 6.86264C7.42247 6.71157 7.46255 6.53892 7.47443 6.28616C7.48581 6.03281 7.48878 5.95205 7.48878 5.30699C7.48878 4.66192 7.48581 4.58097 7.47443 4.32762C7.46255 4.07476 7.42247 3.90216 7.36408 3.75114C7.30322 3.59492 7.22206 3.4624 7.08994 3.33038C6.95782 3.19826 6.8257 3.11711 6.66933 3.05649C6.51792 2.99775 6.34522 2.95772 6.09236 2.94614C5.83901 2.93461 5.75835 2.93179 5.11309 2.93179H5.11383Z" fill="white"/>
<path fill-rule="evenodd" clip-rule="evenodd" d="M4.90075 3.35982C4.96399 3.35972 5.03456 3.35982 5.11383 3.35982C5.74801 3.35982 5.82317 3.3621 6.07361 3.37348C6.30519 3.38407 6.43087 3.42276 6.5146 3.45528C6.62544 3.49833 6.70447 3.54979 6.78755 3.63292C6.87068 3.71605 6.92214 3.79523 6.96529 3.90607C6.9978 3.98969 7.03655 4.11538 7.04709 4.34696C7.05847 4.59735 7.06095 4.67256 7.06095 5.30644C7.06095 5.94033 7.05847 6.01554 7.04709 6.26592C7.0365 6.49751 6.9978 6.62319 6.96529 6.70682C6.92224 6.81766 6.87068 6.89659 6.78755 6.97967C6.70442 7.0628 6.62549 7.11427 6.5146 7.15732C6.43097 7.18998 6.30519 7.22857 6.07361 7.23916C5.82322 7.25054 5.74801 7.25302 5.11383 7.25302C4.4796 7.25302 4.40444 7.25054 4.15405 7.23916C3.92247 7.22847 3.79678 7.18978 3.71301 7.15727C3.60216 7.11422 3.52299 7.06275 3.43986 6.97962C3.35673 6.89649 3.30526 6.81752 3.26211 6.70662C3.2296 6.623 3.19086 6.49731 3.18032 6.26573C3.16894 6.01534 3.16666 5.94013 3.16666 5.30585C3.16666 4.67157 3.16894 4.59676 3.18032 4.34637C3.19091 4.11479 3.2296 3.9891 3.26211 3.90537C3.30516 3.79453 3.35673 3.71536 3.43986 3.63223C3.52299 3.5491 3.60216 3.49763 3.71301 3.45448C3.79673 3.42182 3.92247 3.38323 4.15405 3.37259C4.37316 3.36269 4.45808 3.35972 4.90075 3.35923V3.35982ZM6.38169 3.7542C6.22433 3.7542 6.09666 3.88172 6.09666 4.03913C6.09666 4.19648 6.22433 4.32415 6.38169 4.32415C6.53904 4.32415 6.66671 4.19648 6.66671 4.03913C6.66671 3.88177 6.53904 3.7542 6.38169 3.7542ZM5.11383 4.08723C4.44021 4.08723 3.89406 4.63337 3.89406 5.30699C3.89406 5.9806 4.44021 6.5265 5.11383 6.5265C5.78744 6.5265 6.33339 5.9806 6.33339 5.30699C6.33339 4.63337 5.78744 4.08723 5.11383 4.08723Z" fill="white"/>
<path fill-rule="evenodd" clip-rule="evenodd" d="M5.11383 4.51526C5.55106 4.51526 5.90556 4.86971 5.90556 5.30699C5.90556 5.74422 5.55106 6.09872 5.11383 6.09872C4.67654 6.09872 4.3221 5.74422 4.3221 5.30699C4.3221 4.86971 4.67654 4.51526 5.11383 4.51526Z" fill="white"/>
</svg>
