<svg width="10" height="10" viewBox="0 0 10 10" fill="none" xmlns="http://www.w3.org/2000/svg">
<path fill-rule="evenodd" clip-rule="evenodd" d="M0.504883 5.30696C0.504883 2.84739 2.49876 0.853516 4.95833 0.853516C7.4179 0.853516 9.41178 2.84739 9.41178 5.30696C9.41178 7.76654 7.4179 9.76041 4.95833 9.76041C2.49876 9.76041 0.504883 7.76654 0.504883 5.30696ZM3.65232 4.54205H2.64307V7.57442H3.65232V4.54205ZM3.71903 3.60394C3.71248 3.30662 3.49986 3.08016 3.15461 3.08016C2.80935 3.08016 2.58363 3.30662 2.58363 3.60394C2.58363 3.8951 2.80268 4.12808 3.14151 4.12808H3.14796C3.49986 4.12808 3.71903 3.8951 3.71903 3.60394ZM7.29224 5.83568C7.29224 4.90427 6.79435 4.47077 6.13022 4.47077C5.59438 4.47077 5.35447 4.7651 5.22052 4.97157V4.54206H4.21115C4.22445 4.8266 4.21115 7.57443 4.21115 7.57443H5.22052V5.88091C5.22052 5.79028 5.22707 5.69987 5.25376 5.63498C5.3267 5.45393 5.49277 5.26648 5.7716 5.26648C6.13695 5.26648 6.283 5.54454 6.283 5.95203V7.57435H7.2922L7.29224 5.83568Z" fill="white"/>
</svg>
