<svg width="309" height="50" viewBox="0 0 309 50" fill="none" xmlns="http://www.w3.org/2000/svg">
<path d="M110.641 28.2077L99.8965 28.4407L100.017 33.9452L111.076 33.7044C112.242 35.8875 113.761 37.8065 117.028 37.9347C119.024 38.0124 121.565 37.7521 123.313 35.4719L116.845 35.7088L116.356 25.908L123.088 25.7953C121.301 23.4335 118.733 23.1849 116.872 23.2276C113.632 23.2898 111.644 25.5195 110.641 28.2077Z" fill="white"/>
<path d="M80.4372 28.8681C79.3029 26.2459 77.3916 24.1327 74.1752 24.2065C72.3028 24.2493 70.0109 24.393 68.3483 26.8364L74.2218 26.6849L74.4549 36.6411L68.1113 36.7421C69.9487 38.9486 72.5126 39.1156 74.5015 38.9486C77.7723 38.6728 79.3456 36.6178 80.4177 34.3725L91.6831 34.1278L91.5743 28.6272L80.4372 28.8681Z" fill="white"/>
<path d="M88.7202 42.336L64.0568 43.412C64.0568 43.412 69.3127 28.2387 58.261 25.5195C58.261 25.5195 47.7493 24.292 47.6133 42.6118C47.6133 42.6118 25.5099 43.2877 2.05859 41.5357C2.05859 41.5357 1.38655 22.6643 4.7545 23.0683C4.7545 23.0683 10.1463 17.9484 30.6337 15.2525C30.6337 15.2525 48.8253 2.85288 52.8692 3.12092C52.8692 3.12092 89.128 -0.922954 101.392 4.3368C101.392 4.3368 117.431 11.7486 119.047 13.9046C119.047 13.9046 125.263 15.2525 126.999 16.6005" stroke="#F8971D" stroke-width="2.06209" stroke-miterlimit="10"/>
<path fill-rule="evenodd" clip-rule="evenodd" d="M36.6731 28.4291L45.4367 27.4852C45.4367 27.4852 44.8968 24.2493 50.1371 22.3614L54.045 21.0173C54.045 21.0173 56.605 18.3214 39.7574 23.7132C39.773 23.7132 36.2691 26.0012 36.6731 28.4291Z" stroke="#F8971D" stroke-width="2.06209" stroke-miterlimit="10"/>
<path fill-rule="evenodd" clip-rule="evenodd" d="M6.63086 24.3852C6.63086 24.3852 23.2103 22.2292 31.1621 24.3852L26.8308 32.8769L14.571 34.6289L6.63086 32.201V24.3852Z" stroke="#F8971D" stroke-width="2.06209" stroke-miterlimit="10"/>
<path fill-rule="evenodd" clip-rule="evenodd" d="M27.1055 39.0767H40.585C40.585 39.0767 42.4691 39.8537 44.4929 29.0273H42.201L40.989 33.4169L29.6654 35.9768C29.6654 35.9768 27.9135 36.3964 27.1055 39.0767Z" stroke="#F8971D" stroke-width="2.06209" stroke-miterlimit="10"/>
<path fill-rule="evenodd" clip-rule="evenodd" d="M3.00195 37.7521L4.48587 38.7272C4.48587 38.7272 5.02583 40.0635 5.02583 35.231L3.00195 33.6772V37.7521Z" stroke="#F8971D" stroke-width="2.06209" stroke-miterlimit="10"/>
<path fill-rule="evenodd" clip-rule="evenodd" d="M3.60938 28.1144L5.07775 28.7126V24.0705C5.07775 24.0705 4.14933 22.4856 3.60938 28.1144Z" stroke="#F8971D" stroke-width="2.06209" stroke-miterlimit="10"/>
<path fill-rule="evenodd" clip-rule="evenodd" d="M33.7656 15.5477C33.7656 15.5477 62.2048 14.4678 65.4407 15.5477C65.4407 15.5477 67.0567 17.0278 76.3564 4.49603H51.0171C51.0171 4.49603 46.3012 6.09649 33.7656 15.5477Z" stroke="#F8971D" stroke-width="2.06209" stroke-miterlimit="10"/>
<path fill-rule="evenodd" clip-rule="evenodd" d="M70.8828 15.5943C70.8828 15.5943 75.8046 5.03211 87.4312 3.73077C87.4312 3.73077 101.187 2.10701 112.724 15.9556L70.8828 15.5943Z" stroke="#F8971D" stroke-width="2.06209" stroke-miterlimit="10"/>
<path fill-rule="evenodd" clip-rule="evenodd" d="M49.7682 37.2083C49.1972 42.9847 51.6445 47.957 55.2378 48.3143C58.831 48.6717 62.2067 44.2744 62.7778 38.498C63.3488 32.7216 60.9015 27.7454 57.3121 27.3919C53.7228 27.0384 50.3432 31.428 49.7682 37.2083Z" stroke="#F8971D" stroke-width="2.06209" stroke-miterlimit="10"/>
<path d="M148.654 25.6252C148.971 24.0979 149.298 22.5659 149.574 21.0754H153.213C153.162 21.4711 153.02 22.4555 152.863 23.1732C153.907 21.7931 155.163 20.758 157.496 20.758C159.828 20.758 160.914 21.7747 161.208 23.486C161.807 22.6309 162.606 21.9352 163.535 21.4597C164.465 20.9842 165.496 20.7433 166.54 20.758C169.263 20.758 171.361 22.3267 170.418 26.7384L168.182 37.2824H164.543L166.678 27.1939C167.018 25.593 166.954 23.8816 164.741 23.8816C162.602 23.8816 161.521 25.5654 160.978 28.1185L159.032 37.2778H155.352L157.482 27.2399C157.877 25.3675 157.615 23.9 155.642 23.9C153.507 23.9 152.316 25.5792 151.736 28.3716L149.878 37.2778H146.197L148.654 25.6252Z" fill="#FF970D"/>
<path d="M177.106 21.0616C177.828 28.0771 178.228 32.6131 178.283 34.2784H178.315C179.162 32.4981 181.076 28.1922 184.678 21.0616H188.574L179.677 38.046C176.917 43.3364 175.224 43.8379 171.985 43.8379C171.297 43.825 170.61 43.7542 169.934 43.6262L170.633 40.5072C171.103 40.6049 171.583 40.6512 172.064 40.6452C174.083 40.6452 174.727 39.8172 175.643 38.1887L173.384 21.0616H177.106Z" fill="#FF970D"/>
<path d="M201.334 33.2892C201.002 34.8579 200.639 36.7395 200.598 37.2777H196.973C197.014 36.7671 197.143 35.8746 197.262 35.226C196.453 36.3438 195.284 37.5905 192.165 37.5905C188.945 37.5905 187.652 35.3732 187.652 33.4502C187.652 28.8959 191.733 27.7596 195.197 27.3962C196.664 27.2582 197.957 27.2582 198.928 27.2306L199.093 26.3565C199.351 25.0638 199.314 23.3847 196.747 23.3847C194.484 23.3847 193.987 24.5946 193.582 25.5331H189.787C190.38 22.9937 192.184 20.7349 197.06 20.7349C200.924 20.7349 203.666 22.3864 202.787 26.5175L201.334 33.2892ZM198.39 29.7792C197.393 29.787 196.398 29.8469 195.408 29.9586C192.943 30.2898 191.526 31.0535 191.526 32.8384C191.526 33.8735 192.207 34.6785 193.72 34.6785C196.858 34.6785 197.819 32.1667 198.321 30.0092L198.39 29.7792Z" fill="#FF970D"/>
<path d="M218.956 32.9397C218.639 34.3796 218.331 35.9713 218.11 37.2778H214.471C214.553 36.4617 214.681 35.6508 214.853 34.8488C214.299 35.7274 213.523 36.4449 212.605 36.9293C211.686 37.4138 210.656 37.6482 209.618 37.609C206.628 37.609 204.838 35.6953 205.661 31.8034L207.962 21.08H211.642L209.452 31.3433C209.057 33.1835 209.268 34.5176 211.352 34.5176C213.436 34.5176 215.216 32.9167 216.044 28.9972L217.742 21.0892H221.459L218.956 32.9397Z" fill="#FF970D"/>
<path d="M224.154 21.0616H226.652L227.618 16.5854H231.298L230.383 21.0616H233.571L232.922 23.9552H229.734L227.917 32.6682C227.668 33.8413 227.756 34.5083 229.076 34.5083C229.565 34.5112 230.052 34.4727 230.534 34.3933L229.945 37.1535C229.075 37.3889 228.173 37.4882 227.273 37.4479C224.172 37.4479 223.551 35.7504 224.131 32.9626L226.021 23.9506H223.523L224.154 21.0616Z" fill="#FF970D"/>
<path d="M248.806 27.617C248.806 31.5871 246.506 37.5905 239.858 37.5905C235.543 37.5905 233.418 34.9316 233.418 30.9477C233.418 26.5452 236.178 20.7441 242.255 20.7441C246.096 20.7441 248.806 23.0075 248.806 27.617ZM237.305 30.9615C237.305 33.3628 238.368 34.6417 240.263 34.6417C243.598 34.6417 244.974 30.276 244.974 27.2812C244.974 24.981 243.994 23.6745 241.984 23.6745C238.75 23.6929 237.282 28.0357 237.282 30.9615H237.305Z" fill="#FF970D"/>
<path d="M264.178 32.3876C263.12 35.4422 260.912 37.5906 256.914 37.5906C252.916 37.5906 251.012 35.0558 251.012 31.3203C251.012 26.5176 253.708 20.9006 259.375 20.9006C264.04 20.9006 265.314 24.2496 265.126 26.421H262.25C262.186 24.7188 261.473 23.2835 259.214 23.2835C255.64 23.2835 254.048 27.8609 254.048 31.1501C254.048 34.0391 255.336 35.2628 257.323 35.2628C259.076 35.2628 260.392 34.2093 261.229 32.406L264.178 32.3876Z" fill="white"/>
<path d="M279.488 33.3031C279.194 34.7108 278.812 36.6613 278.743 37.2777H275.872C275.918 36.7165 276.084 35.755 276.249 34.9362C275.449 36.1737 274.147 37.5906 270.927 37.5906C267.707 37.5906 266.492 35.4422 266.492 33.5377C266.492 28.9787 270.711 27.9391 273.991 27.6171C275.592 27.4698 276.976 27.4698 277.827 27.4422L278.021 26.421C278.31 24.9719 278.223 23.1087 275.302 23.1087C272.739 23.1087 272.059 24.4566 271.622 25.5975H268.631C269.193 23.1777 270.973 20.9006 275.578 20.9006C279.304 20.9006 281.779 22.5613 280.951 26.4808L279.488 33.3031ZM277.39 29.5538C276.47 29.5538 275.454 29.5952 274.193 29.724C271.64 30.0184 269.593 30.7361 269.593 33.0776C269.593 34.2369 270.366 35.2076 272.059 35.2076C275.444 35.2076 276.7 32.5486 277.34 29.8068L277.39 29.5538Z" fill="white"/>
<path d="M285.679 25.9701C286.006 24.3968 286.342 22.6947 286.599 21.218H289.424C289.291 22.3263 289.102 23.4272 288.858 24.5164C290.017 22.3175 291.922 20.9006 294.443 20.9006L293.808 23.9184C290.772 24.107 288.518 26.2784 287.759 29.862L286.19 37.2777H283.287L285.679 25.9701Z" fill="white"/>
<path d="M297.745 29.7654C297.664 30.2351 297.621 30.7104 297.616 31.1869C297.616 33.6987 298.775 35.2168 300.961 35.2168C303.146 35.2168 304.181 33.9839 304.889 32.7004H307.939C306.918 35.1662 304.944 37.609 300.652 37.609C296.567 37.609 294.672 34.9362 294.672 31.1915C294.672 26.7246 297.11 20.919 303.132 20.919C307.521 20.919 308.997 23.7482 308.997 26.7384C309.006 27.7618 308.868 28.7811 308.588 29.7654H297.745ZM306.048 27.6171C306.121 27.2629 306.155 26.902 306.15 26.5406C306.15 24.5027 305.197 23.256 302.971 23.256C300.625 23.256 298.969 24.8523 298.205 27.6171H306.048Z" fill="white"/>
</svg>
