<svg width="66" height="26" viewBox="0 0 66 26" fill="none" xmlns="http://www.w3.org/2000/svg">
<path d="M56.6246 14.3931L51.123 14.5124L51.1847 17.3308L56.8474 17.2075C57.4441 18.3253 58.2218 19.3079 59.8945 19.3735C60.9169 19.4133 62.2177 19.28 63.1127 18.1125L59.801 18.2338L59.5504 13.2156L62.9973 13.1579C62.0824 11.9486 60.7677 11.8213 59.815 11.8432C58.1561 11.875 57.1378 13.0167 56.6246 14.3931Z" fill="white"/>
<path d="M41.1587 14.7312C40.5779 13.3886 39.5994 12.3066 37.9525 12.3444C36.9938 12.3663 35.8203 12.4399 34.969 13.691L37.9763 13.6134L38.0957 18.7112L34.8477 18.7629C35.7885 19.8926 37.1012 19.9782 38.1195 19.8926C39.7943 19.7514 40.5998 18.6992 41.1488 17.5496L46.9169 17.4243L46.8612 14.6079L41.1587 14.7312Z" fill="white"/>
<path d="M45.4005 21.6271L32.7723 22.178C32.7723 22.178 35.4634 14.409 29.8048 13.0167C29.8048 13.0167 24.4225 12.3882 24.3529 21.7683C24.3529 21.7683 13.0356 22.1144 1.028 21.2173C1.028 21.2173 0.683901 11.5548 2.40836 11.7617C2.40836 11.7617 5.16908 9.14017 15.659 7.75981C15.659 7.75981 24.9735 1.41094 27.044 1.54818C27.044 1.54818 45.6093 -0.522359 51.8886 2.17074C51.8886 2.17074 60.1011 5.96574 60.9285 7.06963C60.9285 7.06963 64.1109 7.75981 65 8.44999" stroke="#F8971D" stroke-width="1.05583" stroke-miterlimit="10"/>
<path fill-rule="evenodd" clip-rule="evenodd" d="M18.751 14.5065L23.2382 14.0232C23.2382 14.0232 22.9617 12.3663 25.6448 11.3997L27.6458 10.7115C27.6458 10.7115 28.9565 9.33112 20.3302 12.0918C20.3382 12.0918 18.5441 13.2634 18.751 14.5065Z" stroke="#F8971D" stroke-width="1.05583" stroke-miterlimit="10"/>
<path fill-rule="evenodd" clip-rule="evenodd" d="M3.36914 12.4359C3.36914 12.4359 11.8582 11.332 15.9296 12.4359L13.7119 16.7839L7.43464 17.6809L3.36914 16.4378V12.4359Z" stroke="#F8971D" stroke-width="1.05583" stroke-miterlimit="10"/>
<path fill-rule="evenodd" clip-rule="evenodd" d="M13.8535 19.9583H20.7553C20.7553 19.9583 21.72 20.3561 22.7563 14.8127H21.5827L20.9622 17.0603L15.1643 18.3711C15.1643 18.3711 14.2672 18.5859 13.8535 19.9583Z" stroke="#F8971D" stroke-width="1.05583" stroke-miterlimit="10"/>
<path fill-rule="evenodd" clip-rule="evenodd" d="M1.51172 19.9912L2.27151 20.4904C2.27151 20.4904 2.54798 21.1746 2.54798 18.7003L1.51172 17.9047V19.9912Z" stroke="#F8971D" stroke-width="1.05583" stroke-miterlimit="10"/>
<path fill-rule="evenodd" clip-rule="evenodd" d="M1.82227 15.0564L2.5741 15.3627V12.9859C2.5741 12.9859 2.09874 12.1744 1.82227 15.0564Z" stroke="#F8971D" stroke-width="1.05583" stroke-miterlimit="10"/>
<path fill-rule="evenodd" clip-rule="evenodd" d="M17.2617 7.91095C17.2617 7.91095 31.8231 7.358 33.48 7.91095C33.48 7.91095 34.3074 8.66875 39.069 2.25226H26.0948C26.0948 2.25226 23.6802 3.07172 17.2617 7.91095Z" stroke="#F8971D" stroke-width="1.05583" stroke-miterlimit="10"/>
<path fill-rule="evenodd" clip-rule="evenodd" d="M36.2676 7.93483C36.2676 7.93483 38.7876 2.52676 44.7407 1.86044C44.7407 1.86044 51.7837 1.02904 57.691 8.11981L36.2676 7.93483Z" stroke="#F8971D" stroke-width="1.05583" stroke-miterlimit="10"/>
<path fill-rule="evenodd" clip-rule="evenodd" d="M25.4564 19.0015C25.164 21.9592 26.4171 24.5051 28.2569 24.6881C30.0967 24.8711 31.8252 22.6195 32.1175 19.6619C32.4099 16.7043 31.1569 14.1564 29.319 13.9754C27.4812 13.7944 25.7508 16.0419 25.4564 19.0015Z" stroke="#F8971D" stroke-width="1.05583" stroke-miterlimit="10"/>
</svg>
