<svg width="203" height="39" viewBox="0 0 203 39" fill="none" xmlns="http://www.w3.org/2000/svg">
<g clip-path="url(#clip0)">
<path d="M11.1503 16.4744C12.925 16.4744 14.03 17.2781 14.03 17.2781L16.0391 13.2264C16.0391 13.2264 14.097 11.6192 10.2798 11.6192C5.29056 11.6192 0.770142 15.7043 0.770142 20.7605C0.770142 25.7831 5.32404 29.8013 10.2798 29.8013C14.097 29.8013 16.0391 28.261 16.0391 28.261L14.03 24.1424C14.03 24.1424 12.925 24.946 11.1503 24.946C8.90689 24.946 7.06524 23.0709 7.06524 20.6935C7.06524 18.3496 8.90689 16.4744 11.1503 16.4744ZM17.4526 29.299H23.3793V19.5885C23.3793 17.8808 25.1205 16.2401 26.8952 16.2401C28.8038 16.2401 29.9758 17.8808 29.9758 19.5885V29.299H35.9025V17.9812C35.9025 13.193 31.5161 11.6192 28.3685 11.6192C26.4934 11.6192 24.7857 12.5902 23.4463 13.9296H23.3793V0.502319H17.4526V29.299ZM55.9642 21.5306C55.9977 21.3297 55.9977 20.9614 55.9977 20.727C55.9977 14.6998 52.013 11.6192 46.7894 11.6192C41.5993 11.6192 37.3468 15.7043 37.3468 20.727C37.3468 25.7162 41.5993 29.8013 46.7894 29.8013C50.6067 29.8013 53.7542 28.5624 55.6963 25.3144L51.4103 23.1713C49.9704 24.7116 49.1333 25.08 47.2247 25.08C45.7179 25.08 43.5079 24.1759 43.5079 21.5306H55.9642ZM43.6754 18.2491C43.7758 16.6754 44.9143 15.4699 46.9568 15.4699C48.698 15.4699 49.937 16.441 50.2048 18.2491H43.6754ZM56.3545 20.727C56.3545 25.7497 59.8704 29.8013 64.893 29.8013C67.237 29.8013 69.246 28.7633 70.5184 27.3569H70.5854V29.299H76.4452V12.1215H70.5184V13.7622C69.1121 12.3893 67.2035 11.6192 64.893 11.6192C59.8704 11.6192 56.3545 15.7043 56.3545 20.727ZM62.6496 20.727C62.6496 18.3496 64.4243 16.6754 66.6677 16.6754C68.8777 16.6754 70.6524 18.3496 70.6524 20.727C70.6524 23.0709 68.9782 24.7451 66.6677 24.7451C64.2568 24.7451 62.6496 23.0709 62.6496 20.727ZM99.5368 20.6935C99.5368 15.6708 96.0209 11.6192 90.9982 11.6192C88.6543 11.6192 86.6452 12.6572 85.3728 14.0636H85.3058V12.1215H79.4461V38.005H85.3728V27.6583C86.7792 29.0311 88.6878 29.8013 90.9982 29.8013C96.0209 29.8013 99.5368 25.7162 99.5368 20.6935ZM93.2417 20.6935C93.2417 23.0709 91.467 24.7451 89.2235 24.7451C87.0136 24.7451 85.2389 23.0709 85.2389 20.6935C85.2389 18.3496 86.9131 16.6754 89.2235 16.6754C91.6344 16.6754 93.2417 18.3496 93.2417 20.6935ZM101.299 29.299H107.225V19.2537C107.225 17.8808 107.995 16.374 109.971 16.374C112.08 16.374 112.984 17.8808 112.984 19.5885V29.299H118.911V19.0528C118.978 17.7469 119.782 16.374 121.657 16.374C123.766 16.374 124.67 17.8808 124.67 19.5885V29.299H130.597V17.9812C130.597 13.193 127.048 11.6192 123.9 11.6192C122.025 11.6192 120.016 12.5902 118.208 14.7667C117.002 12.4563 114.491 11.6192 112.214 11.6192C110.339 11.6192 108.631 12.5902 107.292 13.9296H107.225V12.1215H101.299V29.299ZM150.667 21.5306C150.7 21.3297 150.7 20.9614 150.7 20.727C150.7 14.6998 146.716 11.6192 141.492 11.6192C136.302 11.6192 132.049 15.7043 132.049 20.727C132.049 25.7162 136.302 29.8013 141.492 29.8013C145.309 29.8013 148.457 28.5624 150.399 25.3144L146.113 23.1713C144.673 24.7116 143.836 25.08 141.927 25.08C140.421 25.08 138.211 24.1759 138.211 21.5306H150.667ZM138.378 18.2491C138.478 16.6754 139.617 15.4699 141.66 15.4699C143.401 15.4699 144.64 16.441 144.908 18.2491H138.378ZM151.22 20.727C151.22 25.7497 154.736 29.8013 159.759 29.8013C162.103 29.8013 164.112 28.7633 165.384 27.3569H165.451V29.299H171.311V0.502319H165.384V13.7622C163.978 12.3893 162.069 11.6192 159.759 11.6192C154.736 11.6192 151.22 15.7043 151.22 20.727ZM157.515 20.727C157.515 18.3496 159.29 16.6754 161.534 16.6754C163.744 16.6754 165.518 18.3496 165.518 20.727C165.518 23.0709 163.844 24.7451 161.534 24.7451C159.123 24.7451 157.515 23.0709 157.515 20.727ZM177.359 1.50686C175.417 1.50686 173.843 3.08063 173.843 5.02273C173.843 6.96483 175.417 8.53861 177.359 8.53861C179.301 8.53861 180.875 6.96483 180.875 5.02273C180.875 3.08063 179.301 1.50686 177.359 1.50686ZM174.312 12.1215H180.239V29.299H174.312V12.1215ZM182.173 20.727C182.173 25.7497 185.689 29.8013 190.711 29.8013C193.055 29.8013 195.064 28.7633 196.337 27.3569H196.404V29.299H202.263V12.1215H196.337V13.7622C194.93 12.3893 193.022 11.6192 190.711 11.6192C185.689 11.6192 182.173 15.7043 182.173 20.727ZM188.468 20.727C188.468 18.3496 190.242 16.6754 192.486 16.6754C194.696 16.6754 196.471 18.3496 196.471 20.727C196.471 23.0709 194.796 24.7451 192.486 24.7451C190.075 24.7451 188.468 23.0709 188.468 20.727Z" fill="white"/>
<path d="M76.3866 31.3918H1.04639V37.6701H76.3866V31.3918Z" fill="white"/>
<path d="M202.268 31.3918H87.8969V37.6701H202.268V31.3918Z" fill="white"/>
</g>
<defs>
<clipPath id="clip0">
<rect width="203" height="38.7165" fill="white"/>
</clipPath>
</defs>
</svg>
