<svg width="15" height="15" viewBox="0 0 15 15" fill="none" xmlns="http://www.w3.org/2000/svg">
<path fill-rule="evenodd" clip-rule="evenodd" d="M9.64585 9.1841H10.2435L14.0185 12.9667L12.8913 14.0939L9.10872 10.3189V9.72122L8.90447 9.5094C8.04204 10.2508 6.92241 10.6971 5.70443 10.6971C2.98855 10.6971 0.787109 8.49568 0.787109 5.7798C0.787109 3.06393 2.98855 0.862488 5.70443 0.862488C8.4203 0.862488 10.6217 3.06393 10.6217 5.7798C10.6217 6.99779 10.1754 8.11742 9.43402 8.97984L9.64585 9.1841ZM2.29992 5.77983C2.29992 7.66355 3.82051 9.18413 5.70422 9.18413C7.58793 9.18413 9.10852 7.66355 9.10852 5.77983C9.10852 3.89612 7.58793 2.37554 5.70422 2.37554C3.82051 2.37554 2.29992 3.89612 2.29992 5.77983Z" fill="#B5BFBF"/>
</svg>
