<svg width="48" height="48" viewBox="0 0 48 48" fill="none" xmlns="http://www.w3.org/2000/svg">
<path fill-rule="evenodd" clip-rule="evenodd" d="M23.9994 0.666626C11.1193 0.666626 0.666016 11.12 0.666016 24C0.666016 36.8799 11.1193 47.3333 23.9994 47.3333C36.8794 47.3333 47.3327 36.8799 47.3327 24C47.3327 11.12 36.8794 0.666626 23.9994 0.666626ZM23.999 42.6666C13.709 42.6666 5.33231 34.2899 5.33231 23.9999C5.33231 13.7099 13.709 5.33327 23.999 5.33327C34.289 5.33327 42.6656 13.7099 42.6656 23.9999C42.6656 34.2899 34.289 42.6666 23.999 42.6666ZM19.2625 18.0966C19.2625 19.8 20.5925 20.9433 24.7225 21.9933C28.8292 23.0666 33.2392 24.84 33.2625 29.9733C33.2392 33.73 30.4392 35.76 26.8925 36.4366V40.3333H21.4325V36.3666C17.9325 35.6433 14.9925 33.4033 14.7591 29.4366H18.7725C18.9825 31.5833 20.4525 33.2633 24.1858 33.2633C28.1758 33.2633 29.0858 31.2566 29.0858 30.02C29.0858 28.34 28.1758 26.73 23.6258 25.6566C18.5625 24.4433 15.0858 22.3433 15.0858 18.1666C15.0858 14.6433 17.9091 12.3566 21.4325 11.61V7.66663H26.8692V11.6566C30.6492 12.59 32.5625 15.46 32.6792 18.5866H28.6892C28.5958 16.3 27.3825 14.76 24.1625 14.76C21.1058 14.76 19.2625 16.1366 19.2625 18.0966Z" fill="#132F44"/>
</svg>
