<svg width="51" height="51" viewBox="0 0 51 51" fill="none" xmlns="http://www.w3.org/2000/svg">
<path fill-rule="evenodd" clip-rule="evenodd" d="M0 25.3208C0 11.3437 11.3437 0 25.3208 0C39.2978 0 50.6415 11.3437 50.6415 25.3208C50.6415 39.2978 39.2978 50.6415 25.3208 50.6415C11.3437 50.6415 0 39.2978 0 25.3208ZM27.851 40.5133H22.7868V35.4492H27.851V40.5133ZM25.3206 45.5774C14.1542 45.5774 5.06403 36.4872 5.06403 25.3207C5.06403 14.1543 14.1542 5.06413 25.3206 5.06413C36.4871 5.06413 45.5773 14.1543 45.5773 25.3207C45.5773 36.4872 36.4871 45.5774 25.3206 45.5774ZM15.1916 20.2566C15.1916 14.6608 19.724 10.1283 25.3199 10.1283C30.9158 10.1283 35.4482 14.6608 35.4482 20.2566C35.4482 23.5051 33.4478 25.2532 31.5001 26.9554C29.6523 28.5701 27.852 30.1435 27.852 32.917H22.7878C22.7878 28.3054 25.1733 26.4769 27.2707 24.8693C28.9161 23.6081 30.3841 22.4829 30.3841 20.2566C30.3841 17.4714 28.1052 15.1925 25.3199 15.1925C22.5346 15.1925 20.2558 17.4714 20.2558 20.2566H15.1916Z" fill="#132F44"/>
</svg>
