<svg width="43" height="54" viewBox="0 0 43 54" fill="none" xmlns="http://www.w3.org/2000/svg">
<path fill-rule="evenodd" clip-rule="evenodd" d="M9.55577 10.0333C11.5385 10.0333 13.1391 8.43278 13.1391 6.45C13.1391 4.06111 9.55577 0 9.55577 0C9.55577 0 5.97243 4.06111 5.97243 6.45C5.97243 8.43278 7.57299 10.0333 9.55577 10.0333ZM25.0821 6.45C25.0821 8.43278 23.4815 10.0333 21.4987 10.0333C19.5159 10.0333 17.9154 8.43278 17.9154 6.45C17.9154 4.06111 21.4987 0 21.4987 0C21.4987 0 25.0821 4.06111 25.0821 6.45ZM37.0308 6.45C37.0308 8.43278 35.4302 10.0333 33.4474 10.0333C31.4646 10.0333 29.8641 8.43278 29.8641 6.45C29.8641 4.06111 33.4474 0 33.4474 0C33.4474 0 37.0308 4.06111 37.0308 6.45ZM34.6389 14.811C36.2156 14.811 37.5533 15.8143 38.0311 17.2237L43 31.5332V50.6443C43 51.9582 41.925 53.0332 40.6111 53.0332H38.2222C36.9083 53.0332 35.8333 51.9582 35.8333 50.6443V48.2554H7.16667V50.6443C7.16667 51.9582 6.09167 53.0332 4.77778 53.0332H2.38889C1.075 53.0332 0 51.9582 0 50.6443V31.5332L4.96889 17.2237C5.47056 15.8143 6.78444 14.811 8.36111 14.811H34.6389ZM9.19747 19.5889H33.7791L36.2636 26.7555H6.71302L9.19747 19.5889ZM4.77757 43.4775H38.222V32.3453L37.9592 31.533H5.06423L4.77757 32.3453V43.4775ZM10.7487 33.9222C8.76971 33.9222 7.16539 35.5265 7.16539 37.5055C7.16539 39.4845 8.76971 41.0888 10.7487 41.0888C12.7277 41.0888 14.3321 39.4845 14.3321 37.5055C14.3321 35.5265 12.7277 33.9222 10.7487 33.9222ZM28.6635 37.5055C28.6635 35.5265 30.2678 33.9222 32.2468 33.9222C34.2258 33.9222 35.8302 35.5265 35.8302 37.5055C35.8302 39.4845 34.2258 41.0888 32.2468 41.0888C30.2678 41.0888 28.6635 39.4845 28.6635 37.5055Z" fill="#132F44"/>
</svg>
