<?xml version="1.0" encoding="iso-8859-1"?>
<!-- Generator: Adobe Illustrator 19.0.0, SVG Export Plug-In . SVG Version: 6.00 Build 0)  -->
<svg version="1.1" id="Layer_1" xmlns="http://www.w3.org/2000/svg" xmlns:xlink="http://www.w3.org/1999/xlink" x="0px" y="0px"
	 viewBox="0 0 512 512" style="enable-background:new 0 0 512 512;" xml:space="preserve">
<g>
	<g>
		<path d="M494.419,17.549c-23.399-23.398-61.471-23.398-84.869,0c-7.711,7.711-13.058,17.153-15.694,27.448
			c-17.605-13.02-42.626-11.562-58.568,4.378c-13.829,13.83-16.75,34.49-8.783,51.218l-23.346,23.346l-6.822-10.234
			c-4.596-6.895-13.912-8.757-20.805-4.161c-6.895,4.596-8.758,13.911-4.161,20.805l10.151,15.227l-20.797,20.797l-6.822-10.234
			c-4.597-6.894-13.912-8.758-20.805-4.161c-6.894,4.596-8.758,13.911-4.162,20.805l10.152,15.227l-20.745,20.745l-6.924-10.255
			c-4.636-6.867-13.962-8.675-20.829-4.038c-6.867,4.637-8.675,13.963-4.038,20.829l10.18,15.076l-44.899,44.899
			c-16.727-7.969-37.389-5.046-51.219,8.784c-12.929,12.929-16.32,31.83-10.197,47.905c-0.137-0.001-0.274-0.01-0.411-0.01
			c-24.044,0-46.65,9.364-63.652,26.365c-35.098,35.098-35.098,92.205,0,127.304c35.178,35.181,92.117,35.183,127.301,0
			c17.002-17.002,26.366-39.607,26.366-63.652c0-0.138-0.009-0.274-0.01-0.411c16.188,6.166,35.04,2.669,47.905-10.197
			c14.033-14.033,16.702-34.734,8.803-51.238l28.427-28.427l6.497,9.622c4.635,6.864,13.959,8.677,20.83,4.038
			c6.866-4.637,8.675-13.963,4.038-20.829l-9.752-14.443l20.223-20.223l6.822,10.234c4.6,6.899,13.916,8.755,20.805,4.161
			c6.895-4.596,8.758-13.911,4.161-20.805l-10.151-15.227l20.797-20.798l6.823,10.234c4.601,6.9,13.918,8.754,20.805,4.161
			c6.895-4.596,8.758-13.911,4.161-20.805l-10.151-15.227l40.321-40.321c16.82,8.013,37.446,4.989,51.219-8.784
			c16.182-16.181,17.283-41.223,4.359-58.607c10.07-2.576,19.601-7.786,27.467-15.653C517.818,79.019,517.818,40.947,494.419,17.549
			z M132.439,464.397c-23.454,23.453-61.414,23.454-84.869,0c-23.398-23.399-23.398-61.471,0-84.869
			c23.453-23.453,61.414-23.455,84.869,0C155.893,402.982,155.894,440.941,132.439,464.397z M206.7,390.136
			c-5.864,5.864-15.353,5.864-21.218,0l-63.651-63.651c-5.85-5.85-5.85-15.368,0-21.218c5.863-5.863,15.352-5.864,21.217,0
			l63.652,63.652C212.563,374.782,212.564,384.272,206.7,390.136z M217.308,337.093l-42.435-42.435l38.961-38.961l34.208,50.661
			L217.308,337.093z M269.653,284.747l-34.208-50.66l20.615-20.615l33.947,50.921L269.653,284.747z M311.645,242.756l-33.947-50.922
			l20.797-20.798l33.947,50.922L311.645,242.756z M354.079,200.321L320.132,149.4l25.765-25.766l42.435,42.435L354.079,200.321z
			 M441.376,155.461c-5.849,5.849-15.367,5.85-21.218,0L356.507,91.81c-5.85-5.851-5.85-15.369-0.001-21.218
			c5.85-5.849,15.368-5.85,21.218,0l63.652,63.652C447.24,140.108,447.24,149.597,441.376,155.461z M473.202,81.2
			c-11.699,11.699-30.735,11.7-42.435,0c-11.728-11.729-11.727-30.706,0-42.434c11.699-11.699,30.735-11.699,42.435,0
			C484.9,50.465,484.9,69.502,473.202,81.2z"/>
	</g>
</g>
<g>
	<g>
		<path d="M121.83,390.136c-17.55-17.551-46.081-17.57-63.652,0c-17.548,17.549-17.548,46.103,0,63.652
			c17.555,17.554,46.086,17.566,63.652,0C139.392,436.226,139.408,407.714,121.83,390.136z M100.613,432.571
			c-5.825,5.826-15.364,5.853-21.217,0c-5.85-5.85-5.85-15.368,0-21.217c5.823-5.824,15.363-5.855,21.217,0
			C106.454,417.196,106.457,426.727,100.613,432.571z"/>
	</g>
</g>
<g>
</g>
<g>
</g>
<g>
</g>
<g>
</g>
<g>
</g>
<g>
</g>
<g>
</g>
<g>
</g>
<g>
</g>
<g>
</g>
<g>
</g>
<g>
</g>
<g>
</g>
<g>
</g>
<g>
</g>
</svg>
