<svg width="34" height="35" viewBox="0 0 34 35" fill="none" xmlns="http://www.w3.org/2000/svg">
<path fill-rule="evenodd" clip-rule="evenodd" d="M19.2337 14.3283L32.097 27.4571C32.6637 28.0355 32.6637 28.9464 32.097 29.4958L28.8387 32.8214C28.2862 33.3853 27.3937 33.3853 26.8412 32.8214L13.9353 19.6492C10.6487 20.9072 6.8095 20.1987 4.1745 17.5093C0.916168 14.1982 0.618668 9.00737 3.25367 5.33477L8.6795 10.8726L10.6912 8.83386L5.25117 3.26713C8.86367 0.577751 13.9353 0.88139 17.1937 4.20697C19.8712 6.95418 20.5512 10.9449 19.2337 14.3283ZM14.4442 16.0923L27.8459 29.7706L29.0926 28.4837L15.7051 14.8199C16.3567 13.9668 16.7817 13.0125 16.9517 11.9859C17.3059 9.97613 16.7251 7.82174 15.1951 6.26016C13.8492 4.90101 12.0784 4.26481 10.3217 4.36603L14.6992 8.83387L8.69257 14.9645L4.31507 10.4967C4.2159 12.2896 4.83923 14.1114 6.18507 15.4706C7.6584 16.9743 9.68423 17.5671 11.6109 17.2779C12.6167 17.1334 13.5801 16.743 14.4442 16.0923Z" fill="#002D56"/>
</svg>
