<svg width="44" height="42" viewBox="0 0 44 42" fill="none" xmlns="http://www.w3.org/2000/svg">
<path d="M4.96774 0C7.71135 0 9.93548 2.23343 9.93548 4.98851C9.93548 7.50176 8.08465 9.58031 5.67742 9.92618V19.954H21.2903V9.92618C18.8826 9.58031 17.0323 7.50176 17.0323 4.98851C17.0323 2.23343 19.2564 0 22 0C24.7436 0 26.9677 2.23343 26.9677 4.98851C26.9677 7.50176 25.1169 9.58031 22.7097 9.92618V19.954H34.0645C36.4159 19.954 38.3226 18.0394 38.3226 15.6782V9.92618C35.9149 9.58031 34.0645 7.50176 34.0645 4.98851C34.0645 2.23343 36.2886 0 39.0323 0C41.7759 0 44 2.23343 44 4.98851C44 7.50176 42.1492 9.58031 39.7419 9.92618V15.6782C39.7419 18.8266 37.1999 21.3793 34.0645 21.3793H22.7097V31.4072C25.1169 31.753 26.9677 33.8316 26.9677 36.3448C26.9677 39.0999 24.7436 41.3333 22 41.3333C19.2564 41.3333 17.0323 39.0999 17.0323 36.3448C17.0323 33.8316 18.8826 31.753 21.2903 31.4072V21.3793H5.67742V31.4072C8.08465 31.753 9.93548 33.8316 9.93548 36.3448C9.93548 39.0999 7.71135 41.3333 4.96774 41.3333C2.22413 41.3333 0 39.0999 0 36.3448C0 33.8316 1.85037 31.753 4.25806 31.4072V21.3793V19.954V9.92618C1.85037 9.58031 0 7.50176 0 4.98851C0 2.23343 2.22413 0 4.96774 0Z" fill="black"/>
</svg>
