<svg width="10" height="10" viewBox="0 0 10 10" fill="none" xmlns="http://www.w3.org/2000/svg">
<path fill-rule="evenodd" clip-rule="evenodd" d="M0.349609 5.30696C0.349609 2.84739 2.34349 0.853516 4.80306 0.853516C7.26263 0.853516 9.25651 2.84739 9.25651 5.30696C9.25651 7.76654 7.26263 9.76041 4.80306 9.76041C2.34349 9.76041 0.349609 7.76654 0.349609 5.30696ZM4.66968 4.47333L4.67902 4.62743L4.52327 4.60856C3.95632 4.53623 3.46102 4.29093 3.04048 3.87895L2.83489 3.67453L2.78193 3.82549C2.66979 4.16199 2.74143 4.51736 2.97507 4.75637C3.09967 4.88846 3.07163 4.90733 2.85669 4.82871C2.78193 4.80355 2.71651 4.78468 2.71028 4.79411C2.68848 4.81613 2.76324 5.10231 2.82243 5.21553C2.90342 5.37277 3.06852 5.52687 3.24919 5.61807L3.40183 5.6904L3.22116 5.69355C3.04671 5.69355 3.04048 5.69669 3.05917 5.76274C3.12148 5.96715 3.36757 6.18415 3.6417 6.2785L3.83483 6.34454L3.66662 6.44518C3.41741 6.58984 3.12459 6.67161 2.83177 6.6779C2.69159 6.68104 2.57633 6.69362 2.57633 6.70306C2.57633 6.73451 2.95638 6.91062 3.17755 6.97981C3.84106 7.18423 4.62918 7.09617 5.22105 6.74709C5.64159 6.49864 6.06213 6.00489 6.25838 5.52687C6.36429 5.27213 6.4702 4.80669 6.4702 4.58341C6.4702 4.43874 6.47955 4.41987 6.65399 4.2469C6.75679 4.14627 6.85336 4.0362 6.87205 4.00475C6.9032 3.94499 6.90009 3.94499 6.74122 3.99846C6.47643 4.0928 6.43905 4.08022 6.56989 3.9387C6.66645 3.83807 6.78171 3.65566 6.78171 3.6022C6.78171 3.59277 6.73499 3.60849 6.68203 3.63679C6.62596 3.66824 6.50135 3.71542 6.4079 3.74372L6.23969 3.79718L6.08705 3.6934C6.00294 3.63679 5.88457 3.5739 5.82226 3.55503C5.66339 3.511 5.42042 3.51729 5.27712 3.56761C4.88773 3.70913 4.64164 4.07393 4.66968 4.47333Z" fill="white"/>
</svg>
