<svg width="10" height="10" viewBox="0 0 10 10" fill="none" xmlns="http://www.w3.org/2000/svg">
<path fill-rule="evenodd" clip-rule="evenodd" d="M4.64876 9.76041C2.18919 9.76041 0.195312 7.76654 0.195312 5.30696C0.195312 2.84739 2.18919 0.853516 4.64876 0.853516C7.10833 0.853516 9.10221 2.84739 9.10221 5.30696C9.10221 7.76654 7.10833 9.76041 4.64876 9.76041ZM4.79555 7.78466C6.25562 7.78407 7.44311 6.59629 7.4437 5.13653C7.44398 4.42895 7.16878 3.76362 6.66881 3.26309C6.16884 2.76254 5.50394 2.48675 4.79553 2.48645C3.33589 2.48645 2.14792 3.67435 2.14734 5.13444C2.14714 5.60117 2.26909 6.05672 2.50083 6.45834L2.12514 7.83058L3.52897 7.46233C3.91576 7.67331 4.35125 7.78451 4.79446 7.78466H4.79555Z" fill="white"/>
<path fill-rule="evenodd" clip-rule="evenodd" d="M3.59331 6.98303L2.76025 7.20156L2.98261 6.38934L2.93027 6.30606C2.70995 5.95563 2.59358 5.5506 2.59375 5.1347C2.59423 3.92114 3.58163 2.93384 4.79571 2.93384C5.38361 2.93404 5.93625 3.16327 6.35181 3.57932C6.76737 3.99536 6.99609 4.54836 6.99586 5.13648C6.99538 6.35013 6.008 7.33754 4.79485 7.33754H4.79395C4.39899 7.33738 4.01162 7.23127 3.67368 7.03073L3.59331 6.98303ZM6.12897 5.76636C6.11243 5.73876 6.06833 5.7222 6.00216 5.68907C5.93599 5.65595 5.61068 5.49589 5.55001 5.47379C5.48937 5.45172 5.44524 5.44069 5.40114 5.50691C5.35704 5.57314 5.23023 5.7222 5.19163 5.76636C5.15303 5.81051 5.11443 5.81605 5.04828 5.78292C4.98212 5.7498 4.76891 5.67993 4.51617 5.4545C4.31946 5.27904 4.18666 5.06237 4.14807 4.99612C4.10947 4.92988 4.14395 4.89408 4.17708 4.86108C4.20685 4.83143 4.24325 4.78378 4.27633 4.74515C4.30941 4.70653 4.32044 4.67891 4.3425 4.63478C4.36455 4.5906 4.35353 4.55197 4.33698 4.51885C4.32044 4.48573 4.18811 4.16003 4.13297 4.02754C4.07926 3.89852 4.02471 3.916 3.9841 3.91396C3.94555 3.91202 3.90139 3.91161 3.85728 3.91161C3.81317 3.91161 3.74148 3.92818 3.68083 3.99442C3.62018 4.06067 3.44925 4.22075 3.44925 4.54642C3.44925 4.87212 3.68634 5.18675 3.71943 5.23091C3.75251 5.27509 4.18601 5.94341 4.84978 6.23003C5.00765 6.29821 5.13089 6.33892 5.22699 6.36941C5.3855 6.41978 5.52976 6.41268 5.64375 6.39563C5.77089 6.37664 6.03523 6.23558 6.09039 6.08102C6.14551 5.92643 6.14551 5.79395 6.12897 5.76636Z" fill="white"/>
</svg>
